<svg t="1696147978113" class="icon" viewBox="0 0 1024 1024" version="1.1" xmlns="http://www.w3.org/2000/svg" p-id="4014"
     width="200" height="200">
    <path d="M544 552.32v247.68a32 32 0 0 1-32 32 31.36 31.36 0 0 1-32-32V552.32L256 423.04a32 32 0 0 1-11.52-43.52 31.36 31.36 0 0 1 43.52-11.52l224 128 222.08-128a31.36 31.36 0 0 1 43.52 11.52 32 32 0 0 1-11.52 43.52l-222.08 128z"
    ></path>
    <path d="M64 256v512l448 256 448-256V256L512 0z m832 480L512 960l-384-224v-448L512 64l384 224z"
    ></path>
</svg>