<svg t="1696160689696" class="icon" viewBox="0 0 1024 1024" version="1.1" xmlns="http://www.w3.org/2000/svg" p-id="5086"
     width="200" height="200">
    <path d="M930.51904 682.752c-1.2288 13.75232-20.17792 10.24-29.66528 10.24H172.77952c-12.0064 0-76.8256 9.05728-76.8256-11.70944v-141.02528-423.35744c0-9.79456-1.76128-22.95808 12.29312-22.95808h809.97888c22.67648 0 12.29312 77.75232 12.29312 91.264V682.752c0 33.01376 51.2 33.01376 51.2 0V317.69088 126.32576c0-19.13344 0.23552-34.98496-8.38656-53.15072-11.27424-23.75168-38.48192-30.42816-62.27456-30.42816H129.17248c-9.8304 0-19.63008-0.30208-29.42464 0.57856-35.75296 3.19488-54.99392 34.6624-54.99392 67.80928v566.92224c0 34.95424 24.52992 66.13504 61.48096 66.13504h812.98944c35.98848 0 59.44832-27.4432 62.49472-61.44 2.944-32.896-48.27648-32.6144-51.2 0z"
           p-id="5087"></path>
    <path d="M487.63904 740.7616v213.3504c0 33.01376 51.2 33.01376 51.2 0v-213.3504c-0.00512-33.01888-51.2-33.01888-51.2 0z"
           p-id="5088"></path>
    <path d="M92.57984 979.712H950.62016c33.01376 0 33.01376-51.2 0-51.2H92.57984c-33.01888 0-33.01888 51.2 0 51.2zM372.74112 236.54912l125.65504 125.65504c23.36256 23.36256 59.5712-12.83584 36.1984-36.20352L408.94464 200.3456c-23.36256-23.36768-59.56608 12.83584-36.20352 36.20352z"
           p-id="5089"></path>
    <path d="M614.17984 200.3456L488.59648 326.00064c-23.35744 23.3728 12.84608 59.57632 36.20352 36.20352l125.57824-125.65504c23.36256-23.3728-12.83584-59.57632-36.1984-36.20352z"
           p-id="5090"></path>
    <path d="M305.88416 369.69984h414.70976c33.01376 0 33.01376-51.2 0-51.2H305.88416c-33.01888 0-33.01888 51.2 0 51.2zM334.91456 498.33984h356.65408c33.01376 0 33.01376-51.2 0-51.2H334.91456c-33.01888 0-33.01888 51.2 0 51.2z"
           p-id="5091"></path>
    <path d="M538.83392 564.89984V344.09984c0-33.01888-51.2-33.01888-51.2 0v220.8c0.00512 33.01376 51.2 33.01376 51.2 0z"
           p-id="5092"></path>
</svg>