<svg t="1694841931849" class="icon" viewBox="0 0 1024 1024" version="1.1" xmlns="http://www.w3.org/2000/svg" p-id="1518"
     width="200" height="200" fill="currentColor">
    <path d="M928 389.44V384l-68.8-237.12A76.48 76.48 0 0 0 789.12 96H233.92a75.84 75.84 0 0 0-70.08 52.16L96 384v6.4a117.76 117.76 0 0 0 79.04 110.4v266.24A111.36 111.36 0 0 0 288 876.48h277.44a20.16 20.16 0 0 0 19.84-19.52 20.16 20.16 0 0 0-19.84-19.52H288a72.64 72.64 0 0 1-72.64-71.36v-259.52a120 120 0 0 0 99.2-52.16 120.32 120.32 0 0 0 198.4 0 120 120 0 0 0 198.08 0 120 120 0 0 0 99.2 52.16v25.92a19.84 19.84 0 0 0 39.68 0v-32A117.76 117.76 0 0 0 928 389.44z m-119.04 73.6a78.08 78.08 0 0 1-79.36-76.48 19.84 19.84 0 0 0-39.68 0 79.36 79.36 0 0 1-158.4 0 19.84 19.84 0 0 0-39.68 0 79.36 79.36 0 0 1-160 0 19.84 19.84 0 0 0-39.68 0 78.08 78.08 0 0 1-79.36 76.48 78.72 78.72 0 0 1-79.36-73.92L202.24 160a37.44 37.44 0 0 1 32-23.04h554.88a39.68 39.68 0 0 1 32 23.04l65.92 228.16a78.72 78.72 0 0 1-78.08 74.88z"
          p-id="1519"></path>
    <path d="M565.76 887.68H288a123.2 123.2 0 0 1-123.84-121.6v-258.56a129.92 129.92 0 0 1-79.04-118.08v-9.6l68.16-234.88a87.36 87.36 0 0 1 80.64-59.84h555.2a87.36 87.36 0 0 1 80.64 58.24L939.2 384v5.12a130.24 130.24 0 0 1-79.36 118.08v24.96a32 32 0 0 1-62.08 0v-15.36a132.8 132.8 0 0 1-88-44.48 131.2 131.2 0 0 1-198.08 0 131.52 131.52 0 0 1-198.4 0A132.8 132.8 0 0 1 224 517.12v248.96a61.76 61.76 0 0 0 64 60.16h279.04a32 32 0 1 1 0 61.44zM107.84 384v4.8a105.92 105.92 0 0 0 71.68 99.84l7.36 2.88v273.92A100.48 100.48 0 0 0 288 864h277.44a8.32 8.32 0 1 0 0-16.64H288a84.16 84.16 0 0 1-83.84-82.56v-269.44h11.2A110.08 110.08 0 0 0 304 448l9.28-13.76 9.28 13.76a109.44 109.44 0 0 0 179.84 0l9.28-13.76 9.28 13.76a109.12 109.12 0 0 0 179.52 0l9.28-13.76 9.28 13.76a110.72 110.72 0 0 0 89.92 47.04h11.2v37.12a9.28 9.28 0 0 0 8.64 8.32 8.96 8.96 0 0 0 8.64-8.32v-40l7.36-2.88a105.92 105.92 0 0 0 72-99.84v-2.56l-68.16-237.12a64 64 0 0 0-59.52-42.24H233.92a64 64 0 0 0-59.2 43.84z m701.12 89.6a89.28 89.28 0 0 1-90.56-87.68 8.96 8.96 0 0 0-8.64-8 9.28 9.28 0 0 0-8.64 8 90.56 90.56 0 0 1-180.8 0 9.28 9.28 0 0 0-8.64-8 8.96 8.96 0 0 0-8.64 8 90.56 90.56 0 0 1-181.12 0 8.64 8.64 0 0 0-17.28 0 90.56 90.56 0 0 1-181.12 2.88v-1.6L192 156.48a49.28 49.28 0 0 1 42.56-32h554.56a51.2 51.2 0 0 1 43.84 32l66.56 230.4v1.6a90.24 90.24 0 0 1-90.56 85.76z m-99.2-118.08a32 32 0 0 1 32 30.4 66.88 66.88 0 0 0 68.16 64 67.84 67.84 0 0 0 68.16-64l-66.56-223.04a28.48 28.48 0 0 0-22.4-15.04H233.92a27.52 27.52 0 0 0-21.12 15.36l-66.56 227.2a66.88 66.88 0 0 0 67.84 61.44 66.56 66.56 0 0 0 68.16-64 32 32 0 0 1 62.08 0 68.16 68.16 0 0 0 136.32 0 32 32 0 0 1 62.08 0 68.16 68.16 0 0 0 136 0 32 32 0 0 1 31.04-31.68z"
          p-id="1520"></path>
    <path d="M905.28 748.8a51.2 51.2 0 0 0 19.52-73.28l-16.64-26.56a56 56 0 0 0-76.16-19.84A55.04 55.04 0 0 0 776.32 576h-32a55.04 55.04 0 0 0-56 53.12 58.88 58.88 0 0 0-42.24-5.44 53.76 53.76 0 0 0-33.6 25.28l-16.96 26.56a51.84 51.84 0 0 0 21.12 73.28 50.88 50.88 0 0 0-19.52 72.96l16.64 26.56a56.96 56.96 0 0 0 33.92 25.28 57.92 57.92 0 0 0 41.92-5.12 55.04 55.04 0 0 0 56 53.12h32a55.04 55.04 0 0 0 56.32-53.12 57.6 57.6 0 0 0 41.92 5.12 51.84 51.84 0 0 0 33.6-25.28l16.96-26.56a54.08 54.08 0 0 0-21.12-72.96z m-16.64 53.12l-16.96 26.56a16 16 0 0 1-19.52 5.44l-24-13.44a135.04 135.04 0 0 1-40.64 22.72v25.28a13.76 13.76 0 0 1-14.08 13.12h-32a13.76 13.76 0 0 1-14.08-13.12v-25.28a96 96 0 0 1-40.64-22.72l-23.68 13.44a15.04 15.04 0 0 1-19.84-5.44l-16.64-26.56a12.8 12.8 0 0 1 5.44-18.56l24-13.44a96 96 0 0 1-2.88-22.4 110.4 110.4 0 0 1 2.88-22.72l-24-13.12a14.4 14.4 0 0 1-5.44-18.88l16.64-26.56a16.32 16.32 0 0 1 19.84-5.12l23.68 13.12a128 128 0 0 1 40.64-22.4v-25.28a13.76 13.76 0 0 1 14.08-13.44h32a13.76 13.76 0 0 1 14.08 13.44v25.28a92.48 92.48 0 0 1 40.64 22.4l24-13.12a14.4 14.4 0 0 1 19.52 5.12l16.96 26.56a13.44 13.44 0 0 1-5.76 18.88l-24 13.12a100.16 100.16 0 0 1 2.88 22.72 107.52 107.52 0 0 1-2.88 22.4l24 13.44a12.48 12.48 0 0 1 5.76 18.56z"
          p-id="1521"></path>
    <path d="M760 804.8a58.24 58.24 0 1 1 56.64-57.92 56.96 56.96 0 0 1-56.64 57.92z m0-80.96a23.36 23.36 0 0 0-22.4 23.04 22.4 22.4 0 1 0 44.8 0 23.36 23.36 0 0 0-22.4-23.04z"
          p-id="1522"></path>
</svg>