<svg t="1694842158586" class="icon" viewBox="0 0 1024 1024" version="1.1" xmlns="http://www.w3.org/2000/svg"
     p-id="39487" width="200" height="200" fill="currentColor">
    <path d="M898.048 214.016c16.384 0 29.696-13.312 29.696-29.696V124.416c0-49.152-39.936-89.088-89.088-89.6H184.32c-48.64 0-88.064 38.912-89.088 87.552v714.752c0 81.92 66.56 148.992 148.48 148.992h654.336c16.384 0 29.696-13.312 29.696-29.696 0-16.384-13.312-29.696-29.696-29.696H244.224c-49.152 0-89.088-39.936-89.088-89.088 0-49.152 39.936-89.6 89.088-89.6h654.336c16.384 0 29.696-13.312 29.696-29.696V178.176c0.512-16.384-11.776-30.208-28.16-31.232-16.384-0.512-30.208 11.776-31.232 28.16v513.024h-624.64c-32.256 0.512-63.488 10.752-89.088 29.696V122.88c0-16.384 13.312-29.696 29.696-29.696h654.336c16.384 0 29.696 13.312 29.696 29.696v59.392c-1.024 16.384 11.776 30.72 28.16 31.744h1.024z"
          p-id="39488"></path>
    <path d="M898.048 807.936H244.224c-16.384 0-29.696 13.312-29.696 29.696 0 16.384 13.312 29.696 29.696 29.696h654.336c16.384 0 29.696-13.312 29.696-29.696-0.512-16.384-13.824-29.696-30.208-29.696z"
          p-id="39489"></path>
</svg>