<svg t="1694841634854" class="icon" viewBox="0 0 1024 1024" version="1.1" xmlns="http://www.w3.org/2000/svg" p-id="1094"
     width="200" height="200" fill="currentColor">
    <path d="M232 434.56a82.24 82.24 0 1 0 122.88-72 81.6 81.6 0 0 0-81.92 0 83.52 83.52 0 0 0-40.96 72z"
          p-id="1095"></path>
    <path d="M362.56 528.96a9.6 9.6 0 0 0-7.36 0 81.6 81.6 0 0 1-82.56 0 8.96 8.96 0 0 0-7.04 0 182.08 182.08 0 0 0-110.08 126.4 32 32 0 0 0 29.12 38.4h258.56a32 32 0 0 0 29.44-38.4 183.68 183.68 0 0 0-110.08-126.4z"
          p-id="1096"></path>
    <path d="M907.52 224H116.48A52.8 52.8 0 0 0 64 277.12v501.76A52.8 52.8 0 0 0 116.48 832h791.04A52.8 52.8 0 0 0 960 778.88V277.12A52.8 52.8 0 0 0 907.52 224z m3.52 554.88a3.52 3.52 0 0 1-3.52 3.52H116.48a3.52 3.52 0 0 1-3.52-3.52V277.12a3.52 3.52 0 0 1 3.52-3.52h791.04a3.52 3.52 0 0 1 3.52 3.52z"
          p-id="1097"></path>
    <path d="M907.52 838.4H116.48a59.2 59.2 0 0 1-58.88-59.52V277.12A59.2 59.2 0 0 1 116.48 217.6h791.04a59.2 59.2 0 0 1 58.88 59.52v501.76a59.2 59.2 0 0 1-58.88 59.52zM116.48 230.4A46.4 46.4 0 0 0 70.4 277.12v501.76a46.4 46.4 0 0 0 46.08 46.72h791.04a46.4 46.4 0 0 0 46.08-46.72V277.12a46.4 46.4 0 0 0-46.08-46.72z m791.04 558.4H116.48a9.92 9.92 0 0 1-9.92-9.92V277.12a9.92 9.92 0 0 1 9.92-9.92h791.04a9.92 9.92 0 0 1 9.92 9.92v501.76a9.92 9.92 0 0 1-9.92 9.92z m-788.16-12.8h785.28V280H119.36z"
          p-id="1098"></path>
    <path d="M832 393.6h-271.04a24.64 24.64 0 0 0 0 49.28H832a24.64 24.64 0 1 0 0-49.28z m0 109.44h-271.04a24.64 24.64 0 0 0-24.32 24.96 24.32 24.32 0 0 0 24.32 24.64H832a24.32 24.32 0 0 0 24.64-24.64 24.64 24.64 0 0 0-24.64-24.96zM832 608h-271.04a24.96 24.96 0 0 0 0 49.6H832A24.96 24.96 0 0 0 832 608z"
          p-id="1099"></path>
</svg>