<svg t="1694841448119" class="icon" viewBox="0 0 1024 1024" version="1.1" xmlns="http://www.w3.org/2000/svg" p-id="953"
     fill="currentColor">
    <path d="M154.24 310.08a32 32 0 0 1-32-30.4V201.28A75.52 75.52 0 0 1 199.04 128h619.2A75.2 75.2 0 0 1 896 201.28v653.44A75.2 75.2 0 0 1 818.24 928H199.04a75.52 75.52 0 0 1-77.44-73.28v-78.4a32 32 0 0 1 32-32 32 32 0 0 1 32 32v78.4a12.16 12.16 0 0 0 12.48 11.52h620.16a11.84 11.84 0 0 0 12.48-11.52V201.28a11.84 11.84 0 0 0-12.48-11.52H199.04a12.16 12.16 0 0 0-12.48 11.52v78.4a32 32 0 0 1-32.32 30.4z"
          p-id="954"></path>
    <path d="M125.44 371.52h58.24a25.92 25.92 0 0 1 29.12 29.44 25.92 25.92 0 0 1-29.12 29.44H125.44a25.92 25.92 0 0 1-28.8-29.44 25.92 25.92 0 0 1 28.8-29.44zM125.44 625.6h58.24a25.92 25.92 0 0 1 29.12 29.44 25.92 25.92 0 0 1-29.12 29.44H125.44a25.92 25.92 0 0 1-28.8-29.44 25.92 25.92 0 0 1 28.8-29.44zM125.44 498.56h58.24a25.92 25.92 0 0 1 29.12 29.44 25.92 25.92 0 0 1-29.12 29.44H125.44A25.92 25.92 0 0 1 96 528a25.92 25.92 0 0 1 29.44-29.44z"
          p-id="955"></path>
    <path d="M593.6 534.4a132.8 132.8 0 0 0 57.28-109.44 137.92 137.92 0 0 0-275.84 0 135.04 135.04 0 0 0 57.28 109.44A169.92 169.92 0 0 0 320 708.48V736h384v-27.52a166.4 166.4 0 0 0-110.4-174.08z m-160-109.44a82.88 82.88 0 1 1 82.56 82.24 82.88 82.88 0 0 1-83.84-82.24z m-53.12 258.24c11.84-91.84 88.32-105.6 135.68-105.6s122.24 13.76 136 105.6z"
          p-id="956"></path>
</svg>