<svg t="1694839086654" class="icon" viewBox="0 0 1024 1024" version="1.1" xmlns="http://www.w3.org/2000/svg" p-id="1967"
     width="200" height="200" fill="currentColor">
    <path d="M402.2272 621.71136V854.016H169.984V621.71136h232.2432m26.624-67.584H143.36c-22.6304 0-40.96 18.3296-40.96 40.96V880.64c0 22.6304 18.3296 40.96 40.96 40.96h285.4912c22.6304 0 40.96-18.3296 40.96-40.96V595.08736c0-22.6304-18.3296-40.96-40.96-40.96zM854.016 621.71136V854.016H621.7728V621.71136H854.016m26.624-67.584H595.1488c-22.6304 0-40.96 18.3296-40.96 40.96V880.64c0 22.6304 18.3296 40.96 40.96 40.96H880.64c22.6304 0 40.96-18.3296 40.96-40.96V595.08736c0-22.6304-18.3296-40.96-40.96-40.96zM402.2272 169.984v232.30464H169.984V169.984h232.2432m26.624-67.584H143.36c-22.6304 0-40.96 18.3296-40.96 40.96v285.55264c0 22.6304 18.3296 40.96 40.96 40.96h285.4912c22.6304 0 40.96-18.3296 40.96-40.96V143.36c0-22.6304-18.3296-40.96-40.96-40.96zM737.87392 121.89696l164.27008 164.27008-164.22912 164.22912-164.27008-164.27008 164.22912-164.22912m0-78.62272c-10.48576 0-20.97152 3.9936-28.95872 12.00128l-201.87136 201.87136c-15.99488 15.99488-15.99488 41.92256 0 57.91744l201.9328 201.9328c8.00768 8.00768 18.47296 12.00128 28.95872 12.00128s20.97152-3.9936 28.95872-12.00128l201.87136-201.87136c15.99488-15.99488 15.99488-41.92256 0-57.91744l-201.9328-201.9328c-8.00768-7.9872-18.47296-12.00128-28.95872-12.00128z"
          p-id="1968"></path>
</svg>