<svg t="1694841661728" class="icon" viewBox="0 0 1024 1024" version="1.1" xmlns="http://www.w3.org/2000/svg" p-id="1237"
     width="200" height="200" fill="currentColor">
    <path d="M160 512a314.24 314.24 0 0 0 156.8 266.88l195.2 133.76 195.2-135.36A313.92 313.92 0 0 0 864 512V265.6A681.6 681.6 0 0 1 512 160 682.56 682.56 0 0 1 160 265.6zM96 196.48q277.44 0 416-132.48 138.24 132.48 416 132.48v317.44a392.64 392.64 0 0 1-185.28 330.88L512 992l-230.72-147.2A392.64 392.64 0 0 1 96 513.92z"
          p-id="1238"></path>
    <path d="M666.88 433.28a154.88 154.88 0 1 0-309.76 0 160 160 0 0 0 116.16 154.88v202.24h77.44v-39.68h38.72V672h-38.72v-83.2a157.44 157.44 0 0 0 116.16-154.88zM512 512a78.4 78.4 0 0 1-73.28-48.32 79.68 79.68 0 0 1 16.32-86.72 78.08 78.08 0 0 1 85.76-17.92 79.68 79.68 0 0 1 48.64 73.6A78.4 78.4 0 0 1 512 512z"
          p-id="1239"></path>
</svg>