<svg t="1697211876982" class="icon" viewBox="0 0 1024 1024" version="1.1" xmlns="http://www.w3.org/2000/svg"
     p-id="13357" width="200" height="200">
    <path d="M948.419048 731.428571l2.438095-438.857142zM548.571429 1014.247619l365.714285-219.428571-365.714285 219.428571z"
          fill="#FFC600" p-id="13358"></path>
    <path d="M514.438095 587.580952L512 1024c12.190476 0 24.380952-2.438095 36.571429-9.752381l363.27619-219.428571c12.190476-7.314286 19.504762-17.066667 26.819048-26.819048 7.314286-12.190476 9.752381-24.380952 9.752381-36.571429V338.895238l-399.847619 241.371429c-9.752381 4.87619-21.942857 7.314286-34.133334 7.314285z"
          fill="#FFE27F" p-id="13359"></path>
    <path d="M477.866667 577.828571L73.142857 336.457143V731.428571c0 12.190476 2.438095 26.819048 9.752381 36.571429 7.314286 12.190476 14.628571 21.942857 26.819048 26.819048l365.714285 219.428571c12.190476 7.314286 24.380952 9.752381 36.571429 9.752381V587.580952c-9.752381 0-24.380952-2.438095-34.133333-9.752381zM941.104762 256c-7.314286-12.190476-14.628571-21.942857-26.819048-26.819048l-365.714285-219.428571c-4.87619-2.438095-12.190476-4.87619-17.066667-7.314286h-4.876191c-7.314286-2.438095-9.752381-2.438095-14.628571-2.438095-4.87619 0-7.314286 0-12.190476 2.438095h-7.314286c-7.314286 2.438095-12.190476 4.87619-17.066667 7.314286l-363.27619 219.428571c-12.190476 7.314286-19.504762 17.066667-26.819048 26.819048L514.438095 512l426.666667-256z"
          fill="#FFC600" p-id="13360"></path>
    <path d="M941.104762 256L514.438095 514.438095v75.580953c12.190476 0 26.819048-2.438095 36.571429-9.752381l399.847619-243.809524V292.571429c0-12.190476-2.438095-24.380952-9.752381-36.571429zM514.438095 587.580952V512L82.895238 256c-4.87619 12.190476-7.314286 24.380952-9.752381 36.571429v43.885714l402.285714 241.371428c12.190476 7.314286 26.819048 9.752381 39.009524 9.752381zM475.428571 9.752381c4.87619-2.438095 12.190476-4.87619 17.066667-7.314286-7.314286 2.438095-12.190476 4.87619-17.066667 7.314286zM499.809524 2.438095c4.87619-2.438095 7.314286-2.438095 12.190476-2.438095-4.87619 0-7.314286 0-12.190476 2.438095zM524.190476 2.438095h0z"
          fill="#FFFFFF" p-id="13361"></path>
    <path d="M73.142857 292.571429v438.857142-438.857142z" fill="#FFC600" p-id="13362"></path>
    <path d="M914.285714 794.819048c12.190476-7.314286 19.504762-17.066667 26.819048-26.819048-7.314286 9.752381-17.066667 19.504762-26.819048 26.819048z"
          fill="#FFE27F" p-id="13363"></path>
    <path d="M512 1024c-12.190476 0-24.380952-2.438095-36.571429-9.752381l-365.714285-219.428571c-12.190476-7.314286-19.504762-17.066667-26.819048-26.819048 7.314286 12.190476 14.628571 21.942857 26.819048 26.819048"
          fill="#FFC600" p-id="13364"></path>
</svg>