<svg t="1697344577625" class="icon" viewBox="0 0 1024 1024" version="1.1" xmlns="http://www.w3.org/2000/svg" p-id="29651" width="200" height="200"><path d="M614.4 949.527273H130.327273V121.018182h726.109091v584.145454c0 134.981818-109.381818 244.363636-242.036364 244.363637z m-437.527273-46.545455h437.527273c107.054545 0 195.490909-88.436364 195.490909-195.490909V167.563636H176.872727v735.418182z" fill="#FF9300" p-id="29652"></path><path d="M646.981818 332.8h-349.090909c-13.963636 0-23.272727-9.309091-23.272727-23.272727s9.309091-23.272727 23.272727-23.272728h349.090909c13.963636 0 23.272727 9.309091 23.272727 23.272728s-9.309091 23.272727-23.272727 23.272727zM635.345455 518.981818H302.545455c-13.963636 0-23.272727-9.309091-23.272728-23.272727s9.309091-23.272727 23.272728-23.272727h332.8c13.963636 0 23.272727 9.309091 23.272727 23.272727s-11.636364 23.272727-23.272727 23.272727zM532.945455 681.890909H302.545455c-13.963636 0-23.272727-9.309091-23.272728-23.272727s9.309091-23.272727 23.272728-23.272727h230.4c13.963636 0 23.272727 9.309091 23.272727 23.272727s-11.636364 23.272727-23.272727 23.272727z" fill="#FF9300" p-id="29653"></path></svg>