<svg t="1697344289668" class="icon" viewBox="0 0 1024 1024" version="1.1" xmlns="http://www.w3.org/2000/svg" p-id="4115"
     width="200" height="200">
    <path d="M991.298204 256.714779c-10.252505-1.895163-20.10285 4.881171-21.998013 15.136745l-14.414291 78.016865c-26.189476-77.558423-72.590272-147.387815-135.124514-201.925942-47.366797-41.306778-101.416807-72.104201-160.649863-91.537809-57.201793-18.767436-116.7971-26.190499-177.115883-22.070668-60.322877 4.121877-118.348432 19.585057-172.46598 45.959751-56.038294 27.309996-105.396445 65.174372-146.703223 112.540146C115.055432 247.614517 81.56876 310.793442 63.295582 380.615671c-2.64013 10.087753 3.397377 20.406772 13.486152 23.046902 10.087753 2.641153 20.405749-3.3984 23.046902-13.486152 16.783245-64.131623 47.555086-122.17662 91.457991-172.522262 37.96773-43.536562 83.315544-78.329996 134.785799-103.414301 49.723471-24.232914 103.050004-38.441521 158.496827-42.230824 55.446823-3.789303 110.209054 3.03308 162.769131 20.275789 54.404074 17.84953 104.065124 46.15111 147.601686 84.117816 77.810157 67.859527 128.446417 161.475671 142.578276 263.60163 0.724501 5.233188 3.532453 9.658987 7.465019 12.574387 2.517333 2.297322 5.67321 3.957125 9.271154 4.621251 1.160429 0.213871 2.313695 0.317225 3.452635 0.317225 8.927323 0 16.864086-6.358825 18.545378-15.45397l30.181393-163.350368C1008.329089 268.458241 1001.551732 258.609942 991.298204 256.714779z"
          fill="#FF9000" p-id="4116"></path>
    <path d="M951.410752 596.688821c-10.082636-2.639107-20.406772 3.39533-23.046902 13.484106-16.788361 64.130599-47.562249 122.17662-91.464131 172.524309-37.96773 43.535539-83.315544 78.328973-134.785799 103.413278-49.723471 24.232914-103.048981 38.439474-158.495804 42.228777-55.450916 3.78828-110.211101-3.035126-162.769131-20.276812-54.405097-17.84953-104.065124-46.152133-147.602709-84.117816-77.80504-67.853387-128.441301-161.468508-142.578276-263.602653-0.726547-5.245468-3.548826-9.682523-7.497765-12.597923-2.512217-2.282996-5.655813-3.930519-9.239432-4.593622-10.249435-1.890047-20.103874 4.882194-21.998013 15.136745L21.753443 721.636554c-1.895163 10.254551 4.882194 20.103874 15.136745 21.998013 1.159406 0.213871 2.313695 0.318248 3.452635 0.318248 8.927323 0 16.865109-6.359848 18.546402-15.454994l14.415314-78.021981c26.190499 77.56354 72.591295 147.393955 135.12349 201.926966 47.367821 41.306778 101.417831 72.105225 160.649863 91.537809 46.978964 15.413038 95.562473 23.176862 144.845922 23.176862 10.724249 0 21.488407-0.36839 32.268938-1.105171 60.322877-4.120854 118.348432-19.584034 172.464957-45.956681 56.038294-27.309996 105.395422-65.173348 146.703223-112.541169 47.767933-54.780651 81.255629-117.958552 99.533924-187.779757C967.536011 609.647971 961.499527 599.328951 951.410752 596.688821z"
          fill="#FF9000" p-id="4117"></path>
    <path d="M407.815149 389.076366c4.832052 0 9.665127-1.843998 13.351076-5.53097 7.373944-7.373944 7.373944-19.329231 0-26.702152l-98.835006-98.830913c-7.373944-7.373944-19.329231-7.373944-26.702152 0-7.373944 7.373944-7.373944 19.329231 0 26.702152l98.835006 98.830913C398.151046 387.232368 402.983097 389.076366 407.815149 389.076366z"
          fill="#FF9000" p-id="4118"></path>
    <path d="M636.646881 383.545396l98.835006-98.830913c7.373944-7.373944 7.373944-19.328207 0.001023-26.702152-7.374968-7.374968-19.330254-7.374968-26.703175 0l-98.835006 98.830913c-7.373944 7.373944-7.373944 19.328207-0.001023 26.702152 3.687996 3.687996 8.519024 5.53097 13.352099 5.53097C628.127857 389.076366 632.960932 387.232368 636.646881 383.545396z"
          fill="#FF9000" p-id="4119"></path>
    <path d="M282.315854 571.60247c-10.42749 0-18.882046 8.453533-18.882046 18.881023s8.453533 18.881023 18.882046 18.881023l212.551954 0 0 172.020842c0 10.42749 8.453533 18.881023 18.882046 18.881023s18.881023-8.453533 18.881023-18.881023L532.630876 609.365538l213.236546 0c10.42749 0 18.881023-8.453533 18.881023-18.881023s-8.453533-18.881023-18.881023-18.881023l-213.236546 0L532.630876 441.738773l213.236546 0c10.42749 0 18.881023-8.453533 18.881023-18.882046s-8.453533-18.882046-18.881023-18.882046L282.315854 403.974681c-10.42749 0-18.882046 8.453533-18.882046 18.882046s8.453533 18.882046 18.882046 18.882046l212.551954 0 0 129.863696L282.315854 571.60247z"
          fill="#FF9000" p-id="4120"></path>
</svg>