<svg t="1697211833638" class="icon" viewBox="0 0 1024 1024" version="1.1" xmlns="http://www.w3.org/2000/svg" p-id="9181" width="200" height="200"><path d="M895.91808 511.7952l0.08192 0.12288v383.67232l-0.08192 0.12288H128.08192l-0.08192-0.12288v-383.67232l0.08192-0.12288h767.83616z m0.08192-63.97952H128c-35.2256 0-64.02048 28.79488-64.02048 63.97952v383.91808c0 35.2256 28.83584 63.97952 64.02048 63.97952h768c35.2256 0 64.02048-28.79488 64.02048-63.97952v-383.91808c0-35.2256-28.83584-63.97952-64.02048-63.97952zM512.08192 63.8976a64.06144 64.06144 0 0 0 0 128c35.30752 0 64.02048-28.672 64.02048-63.97952 0-35.30752-28.672-64.02048-64.02048-64.02048z" fill="#257BDE" p-id="9182"></path><path d="M158.72 506.38848a24.9856 24.9856 0 0 1-17.69472-42.68032l353.4848-353.4848a25.06752 25.06752 0 0 1 35.38944 0l353.40288 353.36192a24.9856 24.9856 0 1 1-35.38944 35.4304l-335.70816-335.83104-335.79008 335.83104a24.9856 24.9856 0 0 1-17.69472 7.3728z m36.98688 270.1312l26.29632-32.03072c13.80352 11.71456 31.70304 19.82464 47.104 19.82464 17.2032 0 25.1904-6.51264 25.1904-16.91648 0-11.18208-10.69056-14.78656-27.27936-21.79072l-24.69888-10.40384c-20.31616-8.11008-39.3216-24.9856-39.3216-53.00224 0-32.48128 29.0816-58.49088 70.20544-58.49088 22.40512 0 45.99808 8.6016 62.91456 25.47712l-23.10144 28.99968c-12.6976-9.58464-24.69888-14.78656-39.81312-14.78656-14.336 0-23.10144 5.7344-23.10144 16.09728 0 10.69056 12.20608 14.78656 29.40928 21.58592l24.1664 9.6256c23.92064 9.58464 38.21568 25.68192 38.21568 53.00224 0 32.19456-26.99264 60.6208-73.80992 60.6208a108.3392 108.3392 0 0 1-72.37632-27.8528z m269.59872-20.23424H408.08448l-11.0592 44.40064H349.67552l60.08832-193.37216h55.58272l60.12928 193.37216h-48.90624l-11.30496-44.40064z m-8.8064-35.88096l-4.21888-16.384c-5.16096-19.2512-10.07616-42.43456-15.27808-62.13632h-0.98304c-4.7104 20.31616-9.91232 42.92608-14.82752 62.13632l-4.17792 16.384h39.48544z m89.21088-113.09056h46.4896v154.4192h75.12064v38.95296h-121.6512v-193.37216z m155.19744 0h122.6752v38.5024h-76.1856v35.88096h64.7168v38.99392h-64.7168V761.856h79.01184v38.99392h-125.50144v-193.49504z" fill="#257BDE" p-id="9183"></path></svg>