<?xml version="1.0" standalone="no"?><!DOCTYPE svg PUBLIC "-//W3C//DTD SVG 1.1//EN" "http://www.w3.org/Graphics/SVG/1.1/DTD/svg11.dtd"><svg t="1649081674436" class="icon" viewBox="0 0 1024 1024" version="1.1" xmlns="http://www.w3.org/2000/svg" p-id="1964" xmlns:xlink="http://www.w3.org/1999/xlink" width="200" height="200"><defs><style type="text/css"></style></defs><path d="M800 64H224c-17.6 0-32 14.4-32 32v832c0 17.6 14.4 32 32 32h576c17.6 0 32-14.4 32-32V96c0-17.6-14.4-32-32-32z m-416 768h-64v-64h64v64z m0-160h-64v-64h64v64z m0-160h-64v-64h64v64z m160 320h-64v-64h64v64z m0-160h-64v-64h64v64z m0-160h-64v-64h64v64z m160 320h-64v-64h64v64z m0-160h-64v-64h64v64z m0-160h-64v-64h64v64z m0-192H320V192h384v128z" p-id="1965"></path></svg>