<?xml version="1.0" standalone="no"?>
<!DOCTYPE svg PUBLIC "-//W3C//DTD SVG 1.1//EN" "http://www.w3.org/Graphics/SVG/1.1/DTD/svg11.dtd">
<svg t="1649771847557" class="icon" viewBox="0 0 1024 1024" version="1.1"
    xmlns="http://www.w3.org/2000/svg" p-id="6221" xmlns:xlink="http://www.w3.org/1999/xlink"
    width="200" height="200">
    <defs>
        <style type="text/css"></style>
    </defs>
    <path
        d="M846.229 96.096h-73.984v-45.04c0-16.61 0.536-30.041-16.053-30.041-16.611 0-18.244 13.431-18.244 30.041v45.04h-88.231v-45.04c0-16.61 2.986-30.041-13.624-30.041-16.568 0-18.975 13.431-18.975 30.041v45.04h-84.88v-45.04c0-16.61 0.388-30.041-16.202-30.041-16.589 0-17.536 13.431-17.536 30.041v45.04h-84.858v-45.04c0-16.61-1.053-30.041-17.664-30.041-16.589 0-16.632 13.431-16.632 30.041v45.04H292.79v-45.04c0-16.61-0.279-30.041-16.869-30.041s-18.544 13.431-18.544 30.041v45.04h-71.493c-66.335 0-120.079 53.722-120.079 120.035v660.344c0 66.314 53.743 120.101 120.079 120.101h660.345c66.292 0 120.057-53.786 120.057-120.101V216.131c-0.001-66.314-53.765-120.035-120.057-120.035z m82.515 782.936c0 35.07-45.04 79.959-80.044 79.959H183.197c-35.026 0-79.852-45.255-79.852-80.323V210.694c0-35.026 39.475-77.058 74.501-77.058h78.047v48.177c0 17.492 2.084 31.696 19.598 31.696 17.556 0 17.857-14.204 17.857-31.696v-48.177h84.88v48.177c0 17.492 0.043 31.696 17.578 31.696 17.556 0 18.674-14.204 18.674-31.696v-48.177h83.01v48.177c0 17.492 1.01 31.696 18.545 31.696 17.533 0 17.126-14.204 17.126-31.696v-48.177h83.956v48.177c0 17.492 2.536 31.696 20.07 31.696 17.535 0 14.376-14.204 14.376-31.696v-48.177h87.522v48.177c0 17.492 1.72 31.696 19.275 31.696 17.535 0 16.977-14.204 16.977-31.696v-48.177h74.866c35.005 0 78.54 40.721 78.54 75.769v669.627z"
        fill="" p-id="6222"></path>
    <path
        d="M190.095 343.279v525.052h652.437V343.279H190.095z m154.461 29.397h94.098v94.076h-94.098v-94.076z m-0.086 124.354h94.27v94.27h-94.27v-94.27zM219.298 371.837h95.753v95.754h-95.753v-95.754z m95.754 469.074h-95.753v-95.774h95.753v95.774z m0-124.461h-95.753v-95.711h95.753v95.711z m0.429-124.011h-96.613v-96.592h96.613v96.592z m123.367 247.829h-94.486v-94.465h94.486v94.465z m0-124.463h-94.486v-94.442h94.486v94.442z m124.506 124.548h-94.615v-94.657h94.615v94.657z m0-124.461h-94.615v-94.594h94.615v94.594z m0-124.42h-94.615v-94.635h94.615v94.635z m0.042-124.397h-94.722v-94.722h94.722v94.722z m124.375 373.257h-94.593v-94.614h94.593v94.614z m0-124.462h-94.593v-94.572h94.593v94.572z m0-124.419h-94.593v-94.593h94.593v94.593z m0-124.44h-94.593v-94.593h94.593v94.593z m124.054 372.956h-93.884v-93.885h93.884v93.885z m0-124.442h-93.884v-93.861h93.884v93.861z m0-124.418h-93.884v-93.905h93.884v93.905z m0-124.44h-93.884v-93.884h93.884v93.884z"
        fill="" p-id="6223"></path>
</svg>