<?xml version="1.0" standalone="no"?><!DOCTYPE svg PUBLIC "-//W3C//DTD SVG 1.1//EN" "http://www.w3.org/Graphics/SVG/1.1/DTD/svg11.dtd"><svg t="1649944876925" class="icon" viewBox="0 0 1296 1024" version="1.1" xmlns="http://www.w3.org/2000/svg" p-id="6437" xmlns:xlink="http://www.w3.org/1999/xlink" width="253.125" height="200"><defs><style type="text/css"></style></defs><path d="M1024 411.664V253.56c0-53.512-43.368-96.84-96.832-96.84H96.832C43.36 156.712 0 200.048 0 253.56v158.104c0.32 0 0.504-0.104 0.816-0.104 55.496 0 100.44 44.952 100.44 100.432 0 55.504-44.944 100.448-100.44 100.448-0.32 0-0.512-0.136-0.816-0.136v158.144c0 53.472 43.368 96.832 96.832 96.832h830.336c53.472 0 96.824-43.376 96.824-96.832V612.312c-55.032-0.44-99.536-45.136-99.536-100.328 0-55.2 44.504-99.888 99.544-100.32z" fill="#F5B146" p-id="6438"></path><path d="M927.168 156.712H513.544v710.576h413.616c53.472 0 96.824-43.368 96.824-96.832V612.312c-55.032-0.44-99.536-45.136-99.536-100.32 0-55.208 44.504-99.896 99.536-100.336V253.56c0.016-53.512-43.352-96.848-96.816-96.848z" fill="#EF962F" p-id="6439"></path><path d="M927.168 156.712H513.544v710.576h413.616c53.472 0 96.824-43.368 96.824-96.832V612.312c-55.032-0.44-99.536-45.136-99.536-100.32 0-55.208 44.504-99.896 99.536-100.336V253.56c0.016-53.512-43.352-96.848-96.816-96.848z" fill="#EF962F" p-id="6440"></path><path d="M702.864 567.504H560.504V503.6h142.36c26.76 0 48.496-21.712 48.496-48.48s-21.72-48.488-48.496-48.488H604.856l65.48-63.416a48.496 48.496 0 0 0 1.064-68.552 48.456 48.456 0 0 0-68.552-1.08L512.032 361.568 421.224 273.592a48.488 48.488 0 0 0-67.488 69.632L419.2 406.64H321.136a48.496 48.496 0 0 0-48.488 48.488 48.496 48.496 0 0 0 48.488 48.48h142.416v63.896H321.136a48.496 48.496 0 0 0 0 96.968h142.416v51.112a48.512 48.512 0 0 0 48.48 48.496 48.504 48.504 0 0 0 48.48-48.496v-51.112h142.36a48.504 48.504 0 0 0 48.496-48.48 48.512 48.512 0 0 0-48.504-48.488z" fill="#E5226B" p-id="6441"></path><path d="M513.544 763.88c26.024-0.832 46.96-22.088 46.96-48.32v-51.112h142.36c26.76 0 48.496-21.712 48.496-48.488s-21.72-48.488-48.496-48.488H560.504V503.6h142.36c26.76 0 48.496-21.72 48.496-48.488s-21.72-48.488-48.496-48.488H604.856l65.48-63.416a48.496 48.496 0 0 0 1.064-68.552 48.456 48.456 0 0 0-68.552-1.08L513.544 360.12v403.76z" fill="#C9005B" p-id="6442"></path></svg>