<svg t="1677814700507" class="icon" viewBox="0 0 1024 1024" version="1.1"
    xmlns="http://www.w3.org/2000/svg" p-id="2765" width="200" height="200">
    <path
        d="M870.4 159.1808A56.832 56.832 0 0 0 813.6192 102.4H210.3808A56.832 56.832 0 0 0 153.6 159.1808L102.4 864.8192A56.832 56.832 0 0 0 159.1808 921.6H864.768A56.832 56.832 0 0 0 921.6 864.8192L870.4 159.1808zM864.8192 870.4H159.1808a5.632 5.632 0 0 1-5.5296-4.7104l50.9952-702.7712L204.8 161.0752v-1.8944A5.632 5.632 0 0 1 210.3808 153.6H813.568a5.632 5.632 0 0 1 5.632 5.5808v1.8432l0.1536 1.8432 50.9952 702.7712a5.632 5.632 0 0 1-5.5296 4.7616z"
        p-id="2766"></path>
    <path
        d="M722.432 297.8816a45.8752 45.8752 0 0 0-45.8752 45.8752c0 13.9776 6.6048 26.112 16.5376 34.5088a179.3536 179.3536 0 0 1-179.0464 177.7664 179.4048 179.4048 0 0 1-179.1488-178.5344 45.2096 45.2096 0 0 0 15.36-33.7408 45.8752 45.8752 0 1 0-91.7504 0 45.568 45.568 0 0 0 25.856 40.8064c4.1984 123.392 105.216 222.6176 229.632 222.6176 124.672 0 225.9456-99.7376 229.6832-223.5392a45.312 45.312 0 0 0 24.576-39.936 45.824 45.824 0 0 0-45.824-45.824z"
        p-id="2767"></path>
</svg>