<?xml version="1.0" standalone="no"?>
<!DOCTYPE svg PUBLIC "-//W3C//DTD SVG 1.1//EN" "http://www.w3.org/Graphics/SVG/1.1/DTD/svg11.dtd">
<svg t="1649558837601" class="icon" viewBox="0 0 1024 1024" version="1.1"
    xmlns="http://www.w3.org/2000/svg" p-id="3890" xmlns:xlink="http://www.w3.org/1999/xlink"
    width="200" height="200">
    <defs>
        <style type="text/css"></style>
    </defs>
    <path
        d="M182.40128 329.6h493.44v36.48H182.40128zM182.40128 694.4H300.80128a168.32 168.32 0 0 1 3.2-36.48h-121.6v36.48zM821.76128 220.16v192c13.44 0 25.6 5.12 36.48 8.32V216.96a142.72 142.72 0 0 0-143.36-144h-39.04v37.76h36.48a119.68 119.68 0 0 1 109.44 109.44zM350.72128 493.44H182.40128v36.48h152.32a140.8 140.8 0 0 1 16-36.48zM292.48128 1.28h273.92v36.48H292.48128z"
        fill="" p-id="3891"></path>
    <path
        d="M164.48128 949.76a134.4 134.4 0 0 1-128-128v-601.6a119.68 119.68 0 0 1 109.44-109.44h36.48v-36.48h-39.04A142.72 142.72 0 0 0 0.00128 216.96v600.96a167.68 167.68 0 0 0 167.04 168.32h192a177.92 177.92 0 0 1-22.4-36.48H164.48128zM419.84128 55.68v36.48H310.40128v36.48h237.44v-36.48H456.32128V55.68h-36.48zM694.40128 456.96c-187.52 0-328.96 67.84-328.96 145.92s141.44 128 328.96 128 328.96-49.28 328.96-128-142.08-145.92-328.96-145.92z m0 237.44c-172.8 0-292.48-42.88-292.48-91.52s119.68-109.44 292.48-109.44 292.48 64 292.48 109.44-119.68 91.52-292.48 91.52zM993.92128 832a16 16 0 0 0-10.88-4.48 16 16 0 0 0-16 16 15.36 15.36 0 0 0 5.12 11.52 69.76 69.76 0 0 1 14.72 42.88c0 49.28-119.04 91.52-292.48 91.52S401.92128 944 401.92128 896a56.32 56.32 0 0 1 15.36-43.52 15.36 15.36 0 0 0 4.48-10.88 16 16 0 0 0-16-16 16.64 16.64 0 0 0-11.52 4.48 76.8 76.8 0 0 0-29.44 64c0 78.08 142.08 128 328.96 128S1024.00128 972.8 1024.00128 896a64 64 0 0 0-28.8-64z"
        fill="" p-id="3892"></path>
    <path
        d="M986.24128 675.84l7.04 7.68a16 16 0 0 0-10.88-4.48 16 16 0 0 0-16 16 15.36 15.36 0 0 0 5.12 11.52 64 64 0 0 1 14.72 42.24c0 49.28-119.04 91.52-292.48 91.52s-292.48-42.24-292.48-91.52a54.4 54.4 0 0 1 16-44.8 15.36 15.36 0 0 0 4.48-10.88 16 16 0 0 0-16-16 16.64 16.64 0 0 0-11.52 4.48 71.04 71.04 0 0 0-29.44 64c0 78.08 142.08 128 328.96 128s328.96-49.92 328.96-128a90.88 90.88 0 0 0-36.48-72.96zM993.28128 683.52v0.64-0.64z"
        fill="" p-id="3893"></path>
    <path
        d="M182.40128 329.6h493.44v36.48H182.40128zM182.40128 694.4H300.80128a168.32 168.32 0 0 1 3.2-36.48h-121.6v36.48zM821.76128 220.16v192c13.44 0 25.6 5.12 36.48 8.32V216.96a142.72 142.72 0 0 0-143.36-144h-39.04v37.76h36.48a119.68 119.68 0 0 1 109.44 109.44zM350.72128 493.44H182.40128v36.48h152.32a140.8 140.8 0 0 1 16-36.48zM292.48128 1.28h273.92v36.48H292.48128z"
        fill="" p-id="3894"></path>
    <path
        d="M164.48128 949.76a134.4 134.4 0 0 1-128-128v-601.6a119.68 119.68 0 0 1 109.44-109.44h36.48v-36.48h-39.04A142.72 142.72 0 0 0 0.00128 216.96v600.96a167.68 167.68 0 0 0 167.04 168.32h192a177.92 177.92 0 0 1-22.4-36.48H164.48128zM419.84128 55.68v36.48H310.40128v36.48h237.44v-36.48H456.32128V55.68h-36.48zM694.40128 456.96c-187.52 0-328.96 67.84-328.96 145.92s141.44 128 328.96 128 328.96-49.28 328.96-128-142.08-145.92-328.96-145.92z m0 237.44c-172.8 0-292.48-42.88-292.48-91.52s119.68-109.44 292.48-109.44 292.48 64 292.48 109.44-119.68 91.52-292.48 91.52zM993.92128 832a16 16 0 0 0-10.88-4.48 16 16 0 0 0-16 16 15.36 15.36 0 0 0 5.12 11.52 69.76 69.76 0 0 1 14.72 42.88c0 49.28-119.04 91.52-292.48 91.52S401.92128 944 401.92128 896a56.32 56.32 0 0 1 15.36-43.52 15.36 15.36 0 0 0 4.48-10.88 16 16 0 0 0-16-16 16.64 16.64 0 0 0-11.52 4.48 76.8 76.8 0 0 0-29.44 64c0 78.08 142.08 128 328.96 128S1024.00128 972.8 1024.00128 896a64 64 0 0 0-28.8-64z"
        fill="" p-id="3895"></path>
    <path
        d="M986.24128 675.84l7.04 7.68a16 16 0 0 0-10.88-4.48 16 16 0 0 0-16 16 15.36 15.36 0 0 0 5.12 11.52 64 64 0 0 1 14.72 42.24c0 49.28-119.04 91.52-292.48 91.52s-292.48-42.24-292.48-91.52a54.4 54.4 0 0 1 16-44.8 15.36 15.36 0 0 0 4.48-10.88 16 16 0 0 0-16-16 16.64 16.64 0 0 0-11.52 4.48 71.04 71.04 0 0 0-29.44 64c0 78.08 142.08 128 328.96 128s328.96-49.92 328.96-128a90.88 90.88 0 0 0-36.48-72.96zM993.28128 683.52v0.64-0.64z"
        fill="" p-id="3896"></path>
</svg>