<svg t="1677680033631" class="icon" viewBox="0 0 1024 1024" version="1.1"
    xmlns="http://www.w3.org/2000/svg" p-id="15409" width="200" height="200">
    <path
        d="M871.04 120.32h-104.96v-6.4c0-62.72-51.2-113.92-113.92-113.92H371.84c-62.72 0-113.92 51.2-113.92 113.92v5.76H152.32C103.68 120.32 64 159.36 64 208.64v651.52C64 950.4 137.6 1024 227.84 1024h568.32c90.24 0 163.84-73.6 163.84-163.84V208.64c0-49.28-39.68-88.32-88.96-88.32z m-549.12-6.4c0-27.52 22.4-49.92 49.92-49.92h280.32c27.52 0 49.92 22.4 49.92 49.92V256H321.92V113.92zM896 860.16c0 55.04-44.8 99.84-99.84 99.84H227.84C172.8 960 128 915.2 128 860.16V208.64c0-13.44 10.88-24.32 24.32-24.32h104.96V288c0 17.92 14.08 32 32 32h444.16c17.92 0 32-14.08 32-32V184.32h104.96c13.44 0 24.32 10.88 24.32 24.32v651.52z"
        fill="#333333" p-id="15410"></path>
    <path
        d="M734.08 448H289.92c-17.92 0-32 14.08-32 32s14.08 32 32 32h444.16c17.92 0 32-14.08 32-32s-14.08-32-32-32zM734.08 640H289.92c-17.92 0-32 14.08-32 32s14.08 32 32 32h444.16c17.92 0 32-14.08 32-32s-14.08-32-32-32z"
        fill="#333333" p-id="15411"></path>
</svg>