<?xml version="1.0" standalone="no"?>
<!DOCTYPE svg PUBLIC "-//W3C//DTD SVG 1.1//EN" "http://www.w3.org/Graphics/SVG/1.1/DTD/svg11.dtd">
<svg t="1649771223283" class="icon" viewBox="0 0 1024 1024" version="1.1"
    xmlns="http://www.w3.org/2000/svg" p-id="1671" xmlns:xlink="http://www.w3.org/1999/xlink"
    width="200" height="200">
    <defs>
        <style type="text/css"></style>
    </defs>
    <path
        d="M958.351822 695.442684c-1.316536 14.722724-21.599751 10.959091-31.754739 10.959091H147.302838c-12.85228 0-82.231313 9.694735-82.231313-12.532512V89.782663c0-10.484121-1.8865-24.573998 13.154655-24.573999h866.965635c24.271623 0 13.160007 83.224066 13.160007 97.685892v532.548128c0 35.340425 54.79813 35.340425 54.79813 0V99.869415c0-20.475879 0.256885-37.446348-8.973584-56.887997-12.066908-25.420916-41.188574-32.570884-66.656318-32.570884H100.626021c-10.520246 0-21.009718-0.323782-31.493839 0.622144-38.266507 3.417106-58.864139 37.101158-58.864139 72.578054v606.809314c0 37.410223 26.257131 70.785211 65.805387 70.785211h870.190077c38.51804 0 63.631229-29.371862 66.886445-65.762573 3.152194-35.210645-51.672695-34.906932-54.79813 0z m0 0"
        p-id="1672"></path>
    <path
        d="M484.313277 757.536617v228.360105c0 35.335074 54.803482 35.335074 54.803482 0v-228.360105c-0.005352-35.345777-54.803482-35.345777-54.803482 0z m0 0"
        p-id="1673"></path>
    <path
        d="M61.460417 1013.297794h918.402852c35.340425 0 35.340425-54.803482 0-54.803482H61.460417c-35.345777 0-35.345777 54.803482 0 54.803482z m299.871819-795.448569l134.49404 134.494041c25.007492 25.00883 63.76101-13.739336 38.742815-38.748166L400.080402 179.095707c-25.003478-25.007492-63.756996 13.740674-38.748166 38.753518z m0 0"
        p-id="1674"></path>
    <path
        d="M619.753244 179.095707L485.336804 313.5951c-25.00214 25.014182 13.751378 63.7677 38.748166 38.748166L658.50141 217.849225c25.007492-25.018196-13.740674-63.766362-38.748166-38.753518z m0 0"
        p-id="1675"></path>
    <path
        d="M289.767005 360.365572h443.889337c35.335074 0 35.335074-54.802144 0-54.802144h-443.889337c-35.340425 0-35.340425 54.802144 0 54.802144z m31.076401 137.6944h381.747238c35.335074 0 35.335074-54.803482 0-54.803482H320.843406c-35.340425 0-35.340425 54.803482 0 54.803482z m0 0"
        p-id="1676"></path>
    <path
        d="M539.111407 569.300083V332.9645c0-35.340425-54.803482-35.340425-54.803482 0v236.335583c0.005352 35.335074 54.803482 35.335074 54.803482 0z m0 0"
        p-id="1677"></path>
</svg>