<svg t="1677679624112" class="icon" viewBox="0 0 1024 1024" version="1.1"
    xmlns="http://www.w3.org/2000/svg" p-id="6949" width="200" height="200">
    <path
        d="M1024 356.2c0-36.8-30-66.8-66.8-66.8s-66.8 30-66.8 66.8c0 16.5 6 31.5 15.9 43.2l-183.7 83.5-178.7-357.5c20.7-11.3 34.8-33.4 34.8-58.6C578.8 30 548.8 0 512 0s-66.8 30-66.8 66.8c0 25.3 14.1 47.3 34.8 58.6L301.3 482.9l-183.7-83.5c9.9-11.7 15.9-26.7 15.9-43.2 0-36.8-30-66.8-66.8-66.8C30 289.4 0 319.3 0 356.2c0 30.9 21.2 56.9 49.7 64.5l129.4 409.7c2.9 9.3 11.5 15.6 21.2 15.6h623.3c9.7 0 18.3-6.3 21.2-15.6l129.4-409.7c28.6-7.6 49.8-33.6 49.8-64.5zM512 44.5c12.3 0 22.3 10 22.3 22.3S524.3 89 512 89s-22.3-10-22.3-22.3 10-22.2 22.3-22.2zM66.8 333.9c12.3 0 22.3 10 22.3 22.3s-10 22.3-22.3 22.3-22.3-10-22.3-22.3 10-22.3 22.3-22.3z m740.5 467.5H216.7L103.1 441.6l199.4 90.6c10.9 5 23.8 0.4 29.1-10.3L512 161.1 692.4 522c5.4 10.7 18.2 15.3 29.1 10.3l199.4-90.6-113.6 359.7z m149.9-423c-12.3 0-22.3-10-22.3-22.3s10-22.3 22.3-22.3 22.3 10 22.3 22.3-10 22.3-22.3 22.3zM779.1 890.4H244.9c-36.8 0-66.8 30-66.8 66.8s30 66.8 66.8 66.8h534.3c36.8 0 66.8-30 66.8-66.8-0.1-36.8-30-66.8-66.9-66.8z m0 89.1H244.9c-12.3 0-22.3-10-22.3-22.3s10-22.3 22.3-22.3h534.3c12.3 0 22.3 10 22.3 22.3s-10.1 22.3-22.4 22.3z"
        p-id="6950"></path>
</svg>