<?xml version="1.0" standalone="no"?><!DOCTYPE svg PUBLIC "-//W3C//DTD SVG 1.1//EN" "http://www.w3.org/Graphics/SVG/1.1/DTD/svg11.dtd"><svg t="1649558831170" class="icon" viewBox="0 0 1033 1024" version="1.1" xmlns="http://www.w3.org/2000/svg" p-id="3623" xmlns:xlink="http://www.w3.org/1999/xlink" width="201.7578125" height="200"><defs><style type="text/css"></style></defs><path d="M983.287368 773.02466a161.819829 161.819829 0 0 0-14.429794-35.043784l35.559135-35.559135-62.357323-62.357322-35.559134 35.559134a157.181681 157.181681 0 0 0-35.043785-14.429794v-51.534977H783.331656v51.534977a147.905385 147.905385 0 0 0-35.043785 14.429794l-35.559134-35.559134-62.357323 62.357322 35.559135 35.559135A161.819829 161.819829 0 0 0 669.954706 773.02466h-51.534978v88.124812h51.534978l6.184197 17.521892a115.438349 115.438349 0 0 0 6.699547 13.914444l-35.559134 35.559134 62.357322 62.872672 35.559135-35.559134 14.429793 6.699547a133.990941 133.990941 0 0 0 18.552592 6.699547v51.534978h88.124811v-51.534978a133.990941 133.990941 0 0 0 18.552592-6.699547l14.429794-6.699547 35.559134 35.559134 62.357323-62.872672-35.559135-35.559134a115.438349 115.438349 0 0 0 6.699547-13.914444 176.249623 176.249623 0 0 0 6.699548-17.521892h51.534977V773.02466h-51.534977z m-51.534977 47.927529a31.951686 31.951686 0 0 1 0 6.699547 8.760946 8.760946 0 0 1 0 3.607449 25.767489 25.767489 0 0 1 0 6.184197 9.791646 9.791646 0 0 1 0 4.122798 103.069955 103.069955 0 0 1-73.695018 75.756417 96.885757 96.885757 0 0 1-27.313538 3.607448 95.855058 95.855058 0 0 1-26.798188-3.607448 103.069955 103.069955 0 0 1-73.695018-75.756417 9.791646 9.791646 0 0 1 0-4.122798 25.767489 25.767489 0 0 1 0-6.184197 8.760946 8.760946 0 0 1 0-3.607449 31.951686 31.951686 0 0 1 0-6.699547v-10.822345-8.245596a48.442879 48.442879 0 0 1 0-8.245597s0-5.153498 2.576749-7.730246a103.069955 103.069955 0 0 1 192.225465 0v15.975843a45.35078 45.35078 0 0 1 0 8.245596v10.822345zM342.19225 107.192753h241.183694a51.534977 51.534977 0 0 0 46.896829-51.534977 51.534977 51.534977 0 0 0-47.927529-51.534978H342.19225A51.534977 51.534977 0 0 0 293.749371 51.534977a51.534977 51.534977 0 0 0 48.442879 55.657776z" p-id="3624"></path><path d="M569.4615 813.221943a250.45999 250.45999 0 0 1 257.674887-242.729744 272.62003 272.62003 0 0 1 98.947156 18.552592V180.887771a110.800201 110.800201 0 0 0-120.591847-123.168596h-109.254152a95.855058 95.855058 0 0 1 0 17.521892 85.548062 85.548062 0 0 1-69.572219 89.670861H292.203322a85.548062 85.548062 0 0 1-73.695018-89.670861v-17.521892h-108.223452C21.64469 57.719175 0 107.708103 0 180.887771v721.489682c0 78.333166 31.436336 121.622547 116.984399 121.622547h577.191746l-4.122798-5.153498a239.637645 239.637645 0 0 1-120.591847-205.624559z" p-id="3625"></path><path d="M123.683946 630.272773a30.405637 30.405637 0 0 1 30.920986-29.890287h206.139909a30.920986 30.920986 0 0 1 31.436337 29.890287v5.668848a30.405637 30.405637 0 0 1-31.436337 29.890286H154.604932a30.405637 30.405637 0 0 1-30.920986-29.890286z m0-172.642174A30.405637 30.405637 0 0 1 154.604932 427.740312h299.418218a30.405637 30.405637 0 0 1 31.436337 29.890287V463.814796a31.436336 31.436336 0 0 1-31.436337 30.405637H154.604932A31.436336 31.436336 0 0 1 123.683946 463.814796z m423.102164-164.911928a34.013085 34.013085 0 0 1-34.528435 32.982386h-360.744842a33.497735 33.497735 0 0 1-34.013085-32.982386 33.497735 33.497735 0 0 1 34.013085-35.043784h360.744842a33.497735 33.497735 0 0 1 34.528435 35.043784z" p-id="3626"></path></svg>